<svg width="868" height="393" viewBox="0 0 868 393" fill="none" xmlns="http://www.w3.org/2000/svg">
<path d="M0.568359 192.664C0.568359 165.809 5.61393 140.743 15.7051 117.469C25.7962 94.0312 40.526 73.6862 59.8945 56.4336C79.263 39.181 103.026 25.5905 131.184 15.6621C159.504 5.73372 191.893 0.769531 228.352 0.769531C241.535 0.769531 254.719 1.50195 267.902 2.9668C281.249 4.26888 294.351 6.38477 307.209 9.31445C320.23 12.2441 332.844 15.9876 345.051 20.5449C357.421 24.9395 369.139 30.2292 380.207 36.4141L344.562 95.0078C337.889 91.1016 330.321 87.6022 321.857 84.5098C313.394 81.2546 304.279 78.569 294.514 76.4531C284.911 74.1745 274.901 72.4655 264.484 71.3262C254.23 70.1868 243.895 69.6172 233.479 69.6172C209.39 69.6172 187.906 72.7096 169.025 78.8945C150.145 84.9167 134.195 93.4616 121.174 104.529C108.153 115.434 98.2246 128.536 91.3887 143.836C84.5527 159.135 81.1348 175.9 81.1348 194.129C81.1348 213.009 84.7155 230.343 91.877 246.131C99.0384 261.919 109.211 275.509 122.395 286.902C135.578 298.296 151.529 307.247 170.246 313.758C188.964 320.105 209.878 323.279 232.99 323.279C251.382 323.279 268.228 321.245 283.527 317.176C298.827 312.944 312.173 307.003 323.566 299.354C334.96 291.704 344.237 282.508 351.398 271.766C358.56 260.861 363.28 248.654 365.559 235.145H232.258V171.424H435.139V171.668L435.383 171.424C439.452 190.955 440.673 209.998 439.045 228.553C437.58 246.945 433.348 264.36 426.35 280.799C419.514 297.075 410.074 312.049 398.029 325.721C385.985 339.393 371.581 351.193 354.816 361.121C338.052 370.887 319.009 378.536 297.688 384.07C276.366 389.441 253.01 392.127 227.619 392.127C192.137 392.127 160.318 386.919 132.16 376.502C104.165 366.085 80.4023 351.844 60.8711 333.777C41.3398 315.711 26.3659 294.552 15.9492 270.301C5.69531 246.049 0.568359 220.171 0.568359 192.664ZM526.691 5.4082H868V73.2793H604.084V173.133H828.205V236.854H604.084V387H526.691V5.4082Z" fill="white"/>
</svg>
